<?xml version="1.0" encoding="UTF-8"?>
<svg version="1.1" xmlns="http://www.w3.org/2000/svg" width="512" height="512">
<path d="M0 0 C1.05445313 0.56460937 2.10890625 1.12921875 3.1953125 1.7109375 C38.9200441 21.57873862 65.06140296 56.8453869 76.42089844 95.80712891 C79.33700096 106.84946989 81.63789124 118.56995822 82 130 C82.02046387 130.62874023 82.04092773 131.25748047 82.06201172 131.90527344 C82.54305843 149.1513943 80.66087511 165.39280421 76 182 C76.94617188 181.73445312 77.89234375 181.46890625 78.8671875 181.1953125 C119.08307216 170.29524693 162.34530408 176.45183315 198.55078125 196.9453125 C234.95187682 218.28564623 261.90159903 253.33693968 272.73730469 294.17773438 C276.15805315 307.58706836 277.41241358 320.64598636 277.375 334.4375 C277.37368576 335.62462082 277.37368576 335.62462082 277.37234497 336.83572388 C277.27466617 363.6635961 271.0966225 388.4918366 258 412 C257.65211426 412.63631348 257.30422852 413.27262695 256.94580078 413.92822266 C251.95591209 422.97853335 246.20835235 430.86875991 239.29931641 438.54492188 C238.1075452 439.8795623 236.94847619 441.24321753 235.79296875 442.609375 C211.05877658 471.42769167 172.51811349 490.07839638 134.79846191 493.18109131 C129.6367785 493.46765901 124.48054479 493.48120835 119.3125 493.4375 C118.14036453 493.43243942 118.14036453 493.43243942 116.94454956 493.42727661 C75.93111945 493.17203554 39.03200002 477.79413163 9 450 C8.09765625 449.16855469 7.1953125 448.33710938 6.265625 447.48046875 C-20.97834399 421.29410725 -38.80134419 381.83583132 -40 344 C-40.02046387 343.37125977 -40.04092773 342.74251953 -40.06201172 342.09472656 C-40.54305843 324.8486057 -38.66087511 308.60719579 -34 292 C-34.94617188 292.26554687 -35.89234375 292.53109375 -36.8671875 292.8046875 C-77.9334957 303.93667676 -121.2268147 297.12817574 -158.08984375 276.25 C-160.79010571 274.57637996 -163.40267739 272.8290455 -166 271 C-166.96164063 270.32324219 -167.92328125 269.64648438 -168.9140625 268.94921875 C-176.45152179 263.46654488 -183.26214083 257.41326157 -190 251 C-190.96873047 250.11054687 -190.96873047 250.11054687 -191.95703125 249.203125 C-216.64195252 225.84783649 -233.77645956 186.94151776 -235.16113281 153.05688477 C-235.18094304 151.68513022 -235.19470989 150.31327802 -235.203125 148.94140625 C-235.20882507 148.19398666 -235.21452515 147.44656708 -235.22039795 146.67649841 C-235.2297838 145.10083399 -235.23635616 143.5251505 -235.24023438 141.94946289 C-235.24984904 139.59939918 -235.28089534 137.25024659 -235.3125 134.90039062 C-235.38675399 124.28819991 -234.22504119 114.3699862 -232 104 C-231.81179687 103.11578369 -231.62359375 102.23156738 -231.4296875 101.32055664 C-222.40226071 61.96221006 -196.72303522 26.79538149 -162.86499023 5.06738281 C-149.62560119 -3.11563169 -135.08056978 -10.04488787 -120 -14 C-119.17773926 -14.22558594 -118.35547852 -14.45117188 -117.50830078 -14.68359375 C-78.05056859 -25.15471508 -35.64058535 -19.62728034 0 0 Z " fill="#C5C0F3" transform="translate(235,19)"/>
<path d="M0 0 C1.05445313 0.56460937 2.10890625 1.12921875 3.1953125 1.7109375 C38.9200441 21.57873862 65.06140296 56.8453869 76.42089844 95.80712891 C80.24403549 110.28411754 82.29217078 125.03436329 82 140 C81.42894531 140.18433594 80.85789062 140.36867187 80.26953125 140.55859375 C60.26367619 147.7149012 45.4935932 163.94708033 36.21875 182.578125 C33.7253751 188.1271064 31.94824878 193.03853535 31.125 199.0625 C29.40598153 206.70707627 23.33448398 210.12723732 17.40234375 214.6015625 C-3.58522936 230.47683705 -21.5135893 254.88664608 -28.38256836 280.39160156 C-31.254479 290.72330245 -31.254479 290.72330245 -34.66162109 293.21533203 C-38.83851395 295.07398004 -43.14541885 295.53401938 -47.67089844 295.83496094 C-49.96568371 295.99756836 -52.20225651 296.29051897 -54.4765625 296.6328125 C-92.73103854 302.14266469 -134.22000544 293.37960578 -166 271 C-166.96164063 270.32324219 -167.92328125 269.64648438 -168.9140625 268.94921875 C-176.45152179 263.46654488 -183.26214083 257.41326157 -190 251 C-190.96873047 250.11054687 -190.96873047 250.11054687 -191.95703125 249.203125 C-216.64195252 225.84783649 -233.77645956 186.94151776 -235.16113281 153.05688477 C-235.18094304 151.68513022 -235.19470989 150.31327802 -235.203125 148.94140625 C-235.20882507 148.19398666 -235.21452515 147.44656708 -235.22039795 146.67649841 C-235.2297838 145.10083399 -235.23635616 143.5251505 -235.24023438 141.94946289 C-235.24984904 139.59939918 -235.28089534 137.25024659 -235.3125 134.90039062 C-235.38675399 124.28819991 -234.22504119 114.3699862 -232 104 C-231.81179687 103.11578369 -231.62359375 102.23156738 -231.4296875 101.32055664 C-222.40226071 61.96221006 -196.72303522 26.79538149 -162.86499023 5.06738281 C-149.62560119 -3.11563169 -135.08056978 -10.04488787 -120 -14 C-119.17773926 -14.22558594 -118.35547852 -14.45117188 -117.50830078 -14.68359375 C-78.05056859 -25.15471508 -35.64058535 -19.62728034 0 0 Z " fill="#EEB2BB" transform="translate(235,19)"/>
<path d="M0 0 C0.68626465 0.061875 1.3725293 0.12375 2.07958984 0.1875 C25.15922323 2.60500661 46.0937756 14.33774377 61 32 C73.43840794 47.67526541 80.64547546 66.25662911 80.375 86.375 C80.36557373 87.46844727 80.35614746 88.56189453 80.34643555 89.68847656 C79.93254754 111.89661887 71.6801219 131.42315439 57 148 C56.44699219 148.63679687 55.89398438 149.27359375 55.32421875 149.9296875 C42.00513638 164.27331467 20.97812667 174.13624523 1.55737305 175.12426758 C-26.04496977 175.96511986 -48.3787718 169.69430943 -68.78588867 150.73095703 C-78.31468966 141.48712098 -85.13865873 130.33589367 -90 118 C-90.29519531 117.25492187 -90.59039062 116.50984375 -90.89453125 115.7421875 C-98.70159325 94.28238162 -96.29275362 70.74859518 -86.9375 50.3125 C-78.30856552 32.46481884 -65.30451591 19.62537254 -48 10 C-47.15179688 9.52691406 -46.30359375 9.05382812 -45.4296875 8.56640625 C-31.476031 1.54583613 -15.49538753 -1.40501271 0 0 Z " fill="#FEFEFE" transform="translate(361,266)"/>
<path d="M0 0 C1.15145508 0.45850342 1.15145508 0.45850342 2.32617188 0.92626953 C13.43451348 5.52370764 22.46148802 12.49147751 31 20.875 C31.76054687 21.61105469 32.52109375 22.34710938 33.3046875 23.10546875 C48.88879128 39.20185275 56.42956891 61.58270714 56.30053711 83.74194336 C55.66419579 107.80591796 44.79009018 129.99049506 28 146.875 C10.16255537 163.01825044 -13.76150282 170.80779446 -37.58984375 170.19140625 C-59.75655845 169.01489175 -79.56064958 158.29293662 -95 142.875 C-95.81597656 142.070625 -96.63195312 141.26625 -97.47265625 140.4375 C-115.07128369 122.08421444 -119.5836567 99.70087028 -119.26953125 75.15625 C-118.67090136 55.38671902 -109.80293173 37.61589563 -97 22.875 C-96.03126953 21.75544922 -96.03126953 21.75544922 -95.04296875 20.61328125 C-71.51901585 -4.59449144 -31.82502021 -12.81801018 0 0 Z " fill="#FEFEFE" transform="translate(190,76.125)"/>
<path d="M0 0 C-0.71856287 31.43712575 -0.71856287 31.43712575 -6 42 C-4.89140625 41.71125 -3.7828125 41.4225 -2.640625 41.125 C-1.17714757 40.74974938 0.28639768 40.37476322 1.75 40 C2.47960937 39.80921875 3.20921875 39.6184375 3.9609375 39.421875 C7.44571646 38.53484036 10.38123722 38 14 38 C8.22242199 61.86186692 -4.05927209 81.74256075 -25 95 C-39.44923284 103.46474743 -54.32829197 108.20108929 -71.1875 108.1875 C-72.01741455 108.18814453 -72.8473291 108.18878906 -73.70239258 108.18945312 C-80.2765219 108.13332395 -86.57399984 107.43655093 -93 106 C-88.01223364 91.81761384 -71.6076283 77.43895088 -59.25 69.4375 C-53.28228804 65.20234958 -52.37053423 61.03086313 -50.96875 54.04296875 C-47.01428869 35.40893031 -31.9639844 17.37346916 -16.36181641 7.05908203 C-13.60687462 5.30698819 -10.831296 3.62726549 -8 2 C-7.2884375 1.59007812 -6.576875 1.18015625 -5.84375 0.7578125 C-4 0 -4 0 0 0 Z " fill="#E9F2F8" transform="translate(317,159)"/>
<path d="M0 0 C8.94405068 6.5649332 15.39292701 17.99170228 20.953125 27.43359375 C21.33355957 28.07925293 21.71399414 28.72491211 22.10595703 29.39013672 C36.00492991 53.37942561 43.85047737 81.61567042 42.953125 109.43359375 C42.38207031 109.61792969 41.81101562 109.80226563 41.22265625 109.9921875 C21.2390304 117.14054333 6.21575353 133.49174995 -2.93359375 152.2109375 C-4.35666361 155.2660595 -5.73241886 158.33044631 -7.046875 161.43359375 C-8.16531643 158.07826947 -7.94070972 157.35482609 -6.90234375 154.109375 C-6.63824707 153.25448486 -6.37415039 152.39959473 -6.10205078 151.51879883 C-5.81571777 150.60380615 -5.52938477 149.68881348 -5.234375 148.74609375 C5.97235983 110.86476115 -0.23037888 71.55787673 -17.046875 36.43359375 C-17.51738281 35.44875 -17.98789062 34.46390625 -18.47265625 33.44921875 C-22.7570137 25.10799186 -28.42548038 17.61327367 -33.92700195 10.04663086 C-35.046875 8.43359375 -35.046875 8.43359375 -36.046875 6.43359375 C-35.1947644 6.32869629 -35.1947644 6.32869629 -34.32543945 6.22167969 C-24.06596684 4.93159741 -14.25864385 3.68506005 -4.54296875 0.0078125 C-2.046875 -0.56640625 -2.046875 -0.56640625 0 0 Z " fill="#F0919F" transform="translate(274.046875,49.56640625)"/>
<path d="M0 0 C2 1 2 1 3 3.625 C3.495 5.295625 3.495 5.295625 4 7 C4.495 8.6396875 4.495 8.6396875 5 10.3125 C5.495 12.1378125 5.495 12.1378125 6 14 C6.18530273 14.67571045 6.37060547 15.3514209 6.56152344 16.04760742 C8.09616488 22.16223715 8.31182133 28.02698521 8.25 34.3125 C8.23658569 35.8452356 8.23658569 35.8452356 8.22290039 37.40893555 C7.85030002 61.60479248 -1.64307238 82.55309868 -18.89428711 99.48925781 C-27.36712739 107.4016956 -37.02326738 113.23282054 -48 117 C-48.35517353 104.2795257 -47.89688244 92.41027888 -45 80 C-44.83902832 79.29198242 -44.67805664 78.58396484 -44.51220703 77.85449219 C-37.37943039 47.33634892 -21.31332238 22.48839148 0 0 Z " fill="#EAF2F8" transform="translate(48,43)"/>
<path d="M0 0 C27.29268382 -1.21300817 53.15741185 5.86988002 77 19 C78.05445313 19.56460937 79.10890625 20.12921875 80.1953125 20.7109375 C90.68190969 26.54290931 99.90062468 33.95838675 108.8125 41.9375 C109.33457031 42.39801758 109.85664063 42.85853516 110.39453125 43.33300781 C111.65744603 44.49210962 112.83703334 45.74064331 114 47 C114 47.99 114 48.98 114 50 C88.78349419 58.25850588 65.52324239 58.3751347 41.46875 46.21484375 C22.22777316 35.89933905 8.87474869 20.87616527 0 1 C0 0.67 0 0.34 0 0 Z " fill="#E2EEF7" transform="translate(158,0)"/>
<path d="M0 0 C1.05123047 -0.00773437 2.10246094 -0.01546875 3.18554688 -0.0234375 C24.90371071 0.02995688 44.38281305 7.90717782 60.6875 22.25 C61.44933594 22.91644531 62.21117187 23.58289063 62.99609375 24.26953125 C71.54144831 32.25210682 77.97174551 42.58829421 82.6875 53.25 C82.6875 53.91 82.6875 54.57 82.6875 55.25 C51.16748473 56.49969224 17.46447621 46.40225502 -8.3125 28.25 C-9.27414063 27.57324219 -10.23578125 26.89648438 -11.2265625 26.19921875 C-16.75901654 22.174966 -21.99465035 17.90082581 -27.0625 13.3125 C-27.58835693 12.83973633 -28.11421387 12.36697266 -28.65600586 11.87988281 C-29.91661233 10.71350948 -31.12049019 9.48639315 -32.3125 8.25 C-32.3125 7.59 -32.3125 6.93 -32.3125 6.25 C-30.6695741 5.61739676 -29.02295109 4.99439451 -27.375 4.375 C-26.00021484 3.85292969 -26.00021484 3.85292969 -24.59765625 3.3203125 C-16.3073225 0.61930008 -8.71286762 -0.06340474 0 0 Z " fill="#EAF2F8" transform="translate(77.3125,261.75)"/>
<path d="M0 0 C19.31351426 2.27490913 37.65188101 14.3569181 50 29 C66.43752423 50.24624272 70.50684347 72.53663235 69 99 C68.69407739 101.00437583 68.36792789 103.00607418 68 105 C58.90876123 103.50554979 50.50963715 93.04545249 44 87 C43.39542969 86.44957031 42.79085937 85.89914062 42.16796875 85.33203125 C19.02557986 63.38199027 4.82942922 31.09474606 0 0 Z " fill="#E9F2F9" transform="translate(197,379)"/>
<path d="M0 0 C31.76075118 18.71176038 53.73248915 55.00253654 62.92236328 89.81787109 C64.26634223 95.18486948 65.27747652 100.51443335 66 106 C48.79523891 105.00741763 31.95163975 93.36397382 20.37109375 81.25 C10.74162186 70.19448418 4.12217784 58.10807378 0 44 C-0.28037109 43.05797729 -0.28037109 43.05797729 -0.56640625 42.09692383 C-2.45581942 34.90358621 -2.29465115 27.70598562 -2.25 20.3125 C-2.25773437 19.02021484 -2.26546875 17.72792969 -2.2734375 16.39648438 C-2.27085937 15.14802734 -2.26828125 13.89957031 -2.265625 12.61328125 C-2.26336914 11.48704346 -2.26111328 10.36080566 -2.25878906 9.20043945 C-1.98803075 5.85197655 -1.19004892 3.13023045 0 0 Z " fill="#DDECF8" transform="translate(445,224)"/>
<path d="M0 0 C3.24733625 0.70026806 6.47802635 1.45400113 9.70947266 2.22412109 C10.81097656 2.47226562 11.91248047 2.72041016 13.04736328 2.97607422 C18.7725817 4.33395644 23.54259578 5.49406437 28.02197266 9.41162109 C29.20947266 12.84912109 29.20947266 12.84912109 29.02197266 16.41162109 C27.02197266 19.34912109 27.02197266 19.34912109 24.02197266 21.41162109 C17.54316229 22.10121852 11.7703629 20.19856662 5.58447266 18.41162109 C4.05790039 17.98236328 4.05790039 17.98236328 2.50048828 17.54443359 C0.00524463 16.84154806 -2.48733591 16.13043904 -4.97802734 15.41162109 C-5.16921143 16.00837646 -5.36039551 16.60513184 -5.55737305 17.2199707 C-7.30461674 22.58358985 -9.34612037 27.42007338 -11.97802734 32.41162109 C-10.84365234 32.49412109 -9.70927734 32.57662109 -8.54052734 32.66162109 C0.20489673 33.80299919 7.06689077 38.00145653 13.02197266 44.41162109 C19.41661335 52.80255825 20.95182246 60.97798169 20.02197266 71.41162109 C18.16476912 80.78488997 12.82097178 88.46359401 4.90478516 93.85302734 C2.97207893 94.87202226 1.0781119 95.67789506 -0.97802734 96.41162109 C-2.05052734 96.82412109 -3.12302734 97.23662109 -4.22802734 97.66162109 C-14.57323273 99.73066217 -22.1772219 98.53218277 -31.09912109 93.12646484 C-38.48730806 88.11255346 -44.06770712 80.20540922 -45.97802734 71.41162109 C-46.5687997 66.24053957 -46.7183039 61.98470878 -44.47802734 57.22412109 C-41.46647883 55.04074842 -39.6143639 54.81858079 -35.97802734 54.74755859 C-32.81238836 55.79864966 -31.73051917 57.63715779 -29.97802734 60.41162109 C-29.32568359 63.53271484 -29.32568359 63.53271484 -29.04052734 66.84912109 C-28.29124984 72.7107256 -27.41203841 75.50546848 -22.97802734 79.41162109 C-18.06750788 82.47535824 -12.56303116 82.01054912 -6.97802734 81.41162109 C-2.09337484 79.14374672 0.75409828 76.2962736 3.02197266 71.41162109 C3.7861744 65.73469388 3.81972595 61.03561887 1.27197266 55.84912109 C-2.86929185 51.36275122 -5.97782636 49.83384574 -11.97802734 48.41162109 C-15.82490807 48.39179181 -19.61530907 48.599856 -23.45458984 48.82958984 C-26.97802734 48.41162109 -26.97802734 48.41162109 -29.93896484 46.27490234 C-32.40601749 42.8106311 -32.37701837 41.58776876 -31.97802734 37.41162109 C-31.07997208 34.92137355 -30.14550297 32.63566984 -29.02099609 30.25537109 C-28.71736649 29.59001343 -28.41373688 28.92465576 -28.10090637 28.23913574 C-27.13294736 26.12494822 -26.1494545 24.01841682 -25.16552734 21.91162109 C-24.51542531 20.49672174 -23.86632686 19.08136081 -23.21826172 17.66552734 C-21.49094657 13.90469982 -19.74989012 10.15171768 -17.97802734 6.41162109 C-17.22453003 4.76709961 -17.22453003 4.76709961 -16.45581055 3.08935547 C-12.7047537 -3.70753723 -6.41906911 -1.26823713 0 0 Z " fill="#C8C3F4" transform="translate(360.97802734375,304.58837890625)"/>
<path d="M0 0 C1.04671875 -0.01224609 2.0934375 -0.02449219 3.171875 -0.03710938 C9.52138764 -0.04901471 15.10879937 0.56226594 21.25 2.1875 C-0.14172021 31.31545528 -28.64155168 53.48920776 -63.6875 63.625 C-64.53900635 63.8720166 -65.3905127 64.1190332 -66.26782227 64.37353516 C-72.07014515 65.95747504 -77.75383334 66.7667864 -83.75 67.1875 C-82.43672123 59.90477225 -80.09474066 53.7786066 -76.75 47.1875 C-76.02683594 45.74697266 -76.02683594 45.74697266 -75.2890625 44.27734375 C-64.18644084 23.72395389 -44.60644997 9.68237341 -22.5625 2.75 C-14.87510562 0.54937234 -7.97226619 0.00483754 0 0 Z " fill="#DFEDF8" transform="translate(462.75,442.8125)"/>
<path d="M0 0 C-0.23783203 1.30130859 -0.23783203 1.30130859 -0.48046875 2.62890625 C-2.61962295 17.77016647 -2.52404498 34.53719505 2.22265625 49.12890625 C2.99646874 51.9869574 3.05612353 53.28330489 2 56 C1.67128906 55.34515625 1.34257812 54.6903125 1.00390625 54.015625 C-2.96476479 46.4009391 -7.65307546 39.70688481 -13 33 C-13.41910645 32.47116211 -13.83821289 31.94232422 -14.27001953 31.39746094 C-39.56765378 -0.29366204 -73.02843198 -16.47171397 -112 -25 C-111.67 -25.66 -111.34 -26.32 -111 -27 C-73.71515704 -35.09875687 -30.7947639 -20.11086622 0 0 Z " fill="#BBB5EE" transform="translate(445,223)"/>
<path d="M0 0 C4.51454049 3.29250967 5.96592836 8.14952534 7.90625 13.1796875 C8.26807877 14.09277176 8.62990753 15.00585602 9.00270081 15.9466095 C10.1781187 18.91903621 11.33903723 21.89690144 12.5 24.875 C13.30421094 26.91553309 14.10947304 28.9556522 14.91577148 30.99536133 C16.52662905 35.07364407 18.13244797 39.15384965 19.73388672 43.23583984 C22.55640474 50.42477287 25.41955659 57.59721803 28.29296875 64.76593018 C29.0499767 66.6562285 29.80461979 68.54745459 30.55859375 70.43896484 C31.00460938 71.55609863 31.450625 72.67323242 31.91015625 73.82421875 C32.29308838 74.78416748 32.67602051 75.74411621 33.07055664 76.7331543 C33.95876987 78.97959602 33.95876987 78.97959602 35 81 C35.54035146 85.05263598 35.34199395 86.53730231 32.875 89.875 C30 92 30 92 26.9375 92.5625 C23.21712573 91.8500879 22.39852356 90.9160891 20 88 C18.62741806 85.35865945 17.56398389 82.61998314 16.49609375 79.84375 C16.17596817 79.03640411 15.85584259 78.22905823 15.52601624 77.39724731 C14.48650483 74.7686494 13.46182482 72.13454865 12.4375 69.5 C11.72614803 67.69154514 11.0139032 65.88344124 10.30078125 64.07568359 C8.87056761 60.44551608 7.44624355 56.81312443 6.02685547 53.17871094 C4.20271726 48.51080629 2.35756937 43.85155617 0.50390625 39.1953125 C-0.49808413 36.67214753 -1.4990348 34.14857203 -2.5 31.625 C-2.96220947 30.46291016 -3.42441895 29.30082031 -3.90063477 28.10351562 C-4.31498779 27.05099609 -4.72934082 25.99847656 -5.15625 24.9140625 C-5.51525391 24.0060791 -5.87425781 23.0980957 -6.24414062 22.16259766 C-7 20 -7 20 -7 18 C-7.556875 18.2165625 -8.11375 18.433125 -8.6875 18.65625 C-14.01666072 20.60067351 -18.32836335 21.76903548 -24 21 C-26.73080856 18.61054251 -27.76900145 17.02666021 -28.5625 13.5 C-27.73595868 9.82648301 -25.81562281 8.45802365 -23 6 C-20.53564999 4.72781036 -18.2540964 3.67105919 -15.6875 2.6875 C-14.74874023 2.29208008 -14.74874023 2.29208008 -13.79101562 1.88867188 C-9.02338367 0.00606849 -5.12172389 -0.56790099 0 0 Z " fill="#EEB3BC" transform="translate(150,111)"/>
<path d="M0 0 C0.495 0.99 0.495 0.99 1 2 C-0.08927186 5.10289061 -1.3312283 8.09054608 -2.6315918 11.10864258 C-4.22135341 14.85968982 -5.22310691 18.13626935 -5.8125 22.1875 C-6.484375 24.265625 -6.484375 24.265625 -8 26 C-13.51165936 28.25124115 -19.1257129 29.17658963 -25 30 C-25.80711426 30.11424316 -26.61422852 30.22848633 -27.44580078 30.34619141 C-34.97678624 31.36634296 -42.39549339 32.11975601 -50 32 C-51.4606285 29.35261084 -52 28.10551666 -52 25 C-51.05382812 24.731875 -50.10765625 24.46375 -49.1328125 24.1875 C-32.49621123 19.32308393 -12.52914123 12.52914123 0 0 Z " fill="#F092A0" transform="translate(210,285)"/>
<path d="M0 0 C1.24422942 3.73268825 0.54017099 4.84101373 -0.875 8.4375 C-2.10931915 11.60961389 -3.26092859 14.67417865 -4 18 C-9.0716145 18.83706259 -13.97764139 19.13517405 -19.12109375 19.09765625 C-19.86585464 19.0962413 -20.61061554 19.09482635 -21.37794495 19.09336853 C-23.73117273 19.08781989 -26.0843015 19.07527733 -28.4375 19.0625 C-30.04361841 19.05747835 -31.64973832 19.05291661 -33.25585938 19.04882812 C-37.17061043 19.03786735 -41.08528849 19.02063884 -45 19 C-45 18.01 -45 17.02 -45 16 C-44.4330542 15.86013672 -43.8661084 15.72027344 -43.28198242 15.57617188 C-28.18571294 11.79716811 -13.90918973 7.02966522 0 0 Z " fill="#BBB5EE" transform="translate(383,493)"/>
<path d="M0 0 C0.74362793 0.01047363 1.48725586 0.02094727 2.25341797 0.03173828 C3.46191406 0.04140625 3.46191406 0.04140625 4.69482422 0.05126953 C5.95746094 0.07640625 5.95746094 0.07640625 7.24560547 0.10205078 C8.51984375 0.11558594 8.51984375 0.11558594 9.81982422 0.12939453 C11.9202043 0.15299431 14.02043991 0.18886595 16.12060547 0.22705078 C16.78060547 2.20705078 17.44060547 4.18705078 18.12060547 6.22705078 C16.5164388 5.93538411 14.91227214 5.64371745 13.30810547 5.35205078 C11.81923828 5.08134766 11.81923828 5.08134766 10.30029297 4.80517578 C5.57373047 3.94580078 0.84716797 3.08642578 -3.87939453 2.22705078 C-1.87939453 0.22705078 -1.87939453 0.22705078 0 0 Z " fill="#F095A2" transform="translate(141.87939453125,-0.22705078125)"/>
<path d="M0 0 C1.13508688 3.3515741 0.87309359 5.35675676 -0.25 8.6875 C-0.50265625 9.47511719 -0.7553125 10.26273438 -1.015625 11.07421875 C-2 13 -2 13 -5 14 C-3.45730076 9.27934033 -1.92205381 4.58335908 0 0 Z " fill="#F09BA8" transform="translate(265,212)"/>
<path d="M0 0 C1.305239 3.91571701 0.32239848 5.03892997 -1.4375 8.6875 C-1.91058594 9.68136719 -2.38367188 10.67523438 -2.87109375 11.69921875 C-3.42990234 12.83810547 -3.42990234 12.83810547 -4 14 C-5.2277183 10.31684509 -4.6026666 9.37044582 -3.125 5.875 C-2.75632812 4.98554688 -2.38765625 4.09609375 -2.0078125 3.1796875 C-1 1 -1 1 0 0 Z " fill="#F09BA8" transform="translate(271,197)"/>
</svg>
